<svg width="100" height="100" viewBox="0 0 100 100" fill="none" xmlns="http://www.w3.org/2000/svg">
<g clip-path="url(#clip0_7096_934)">
<path d="M50 0.5C77.3381 0.500002 99.5 22.6619 99.5 50C99.5 77.3381 77.3381 99.5 50 99.5C22.6619 99.5 0.5 77.3381 0.5 50C0.500002 22.6619 22.6619 0.5 50 0.5Z" fill="#FFEF0E" stroke="#002B11"/>
<path d="M49.7136 20.6371C37.5025 20.6371 27.6006 30.539 27.6006 42.7501C27.6006 54.9611 37.5025 64.863 49.7136 64.863C61.9246 64.863 71.8265 54.9611 71.8265 42.7501C71.8265 30.539 61.9246 20.6371 49.7136 20.6371ZM49.7136 62.3895C38.8684 62.3895 30.0741 53.5952 30.0741 42.7501C30.0741 31.9049 38.8684 23.1106 49.7136 23.1106C60.5587 23.1106 69.353 31.9049 69.353 42.7501C69.353 53.5952 60.5587 62.3895 49.7136 62.3895ZM44.79 44.249C44.79 45.7441 43.5767 46.9535 42.0856 46.9535C40.5944 46.9535 39.3811 45.7402 39.3811 44.249C39.3811 42.7579 40.5944 41.5446 42.0856 41.5446C43.5767 41.5446 44.79 42.7579 44.79 44.249ZM60.046 44.249C60.046 45.7441 58.8327 46.9535 57.3416 46.9535C55.8504 46.9535 54.6371 45.7402 54.6371 44.249C54.6371 42.7579 55.8504 41.5446 57.3416 41.5446C58.8327 41.5446 60.046 42.7579 60.046 44.249ZM62.4843 38.6132L64.9813 35.897H59.4472C56.6762 34.0066 53.3299 32.9029 49.7136 32.9029C46.0972 32.9029 42.7627 34.0105 39.9956 35.897H34.4497L36.9467 38.6132C35.4164 40.0065 34.4576 42.0182 34.4576 44.249C34.4576 48.4603 37.8743 51.877 42.0856 51.877C44.0894 51.877 45.9094 51.106 47.2714 49.8419L49.7175 52.5033L52.1636 49.8458C53.5256 51.106 55.3455 51.877 57.3455 51.877C61.5606 51.877 64.9774 48.4603 64.9774 44.249C64.9774 42.0143 64.0185 40.0065 62.4882 38.6132M42.0895 49.4153C39.2363 49.4153 36.9272 47.1022 36.9272 44.253C36.9272 41.4037 39.2402 39.0907 42.0895 39.0907C44.9387 39.0907 47.2518 41.4037 47.2518 44.253C47.2518 47.1022 44.9426 49.4153 42.0895 49.4153ZM49.7175 44.1042C49.7175 40.7071 47.2479 37.7913 43.9877 36.5467C45.7489 35.8109 47.6862 35.3999 49.7175 35.3999C51.7487 35.3999 53.6861 35.807 55.4473 36.5467C52.1871 37.7952 49.7175 40.7071 49.7175 44.1042ZM57.3455 49.4153C54.4962 49.4153 52.1832 47.1022 52.1832 44.253C52.1832 41.4037 54.4962 39.0907 57.3455 39.0907C60.1947 39.0907 62.5078 41.4037 62.5078 44.253C62.5078 47.1022 60.1947 49.4153 57.3455 49.4153Z" fill="#002B11"/>
<path d="M32.219 60.46C32.219 60.46 31.0957 57.6499 28.0703 54.8085C25.045 51.9671 21.2251 51.4426 21.2251 51.4426C21.2251 51.4426 22.5832 54.4758 25.8042 57.5012C29.0292 60.5266 32.2151 60.46 32.2151 60.46" fill="#002B11"/>
<path d="M39.8507 64.6517C39.8507 64.6517 38.293 63.1331 35.4555 62.0294C32.618 60.9257 29.9214 61.458 29.9214 61.458C29.9214 61.458 31.6983 63.0627 34.7197 64.2407C37.7412 65.4188 39.8468 64.6517 39.8468 64.6517" fill="#002B11"/>
<path d="M47.2598 66.1545C47.2598 66.1545 45.6434 65.4892 43.2286 65.5714C40.8138 65.6536 39.0251 66.9686 39.0251 66.9686C39.0251 66.9686 40.8294 67.63 43.4008 67.5439C45.9721 67.4578 47.2598 66.1584 47.2598 66.1584" fill="#002B11"/>
<path d="M28.8804 53.6618C28.8804 53.6618 28.356 50.6677 25.9842 47.2627C23.6085 43.8577 20 42.574 20 42.574C20 42.574 20.7084 45.8342 23.2367 49.4623C25.765 53.0904 28.8843 53.6618 28.8843 53.6618" fill="#002B11"/>
<path d="M25.8982 44.5347C25.8982 44.5347 26.4774 41.5015 25.5029 37.4272C24.5283 33.353 21.6595 30.8599 21.6595 30.8599C21.6595 30.8599 21.1546 34.2101 22.1957 38.5505C23.2368 42.8909 25.9021 44.5347 25.9021 44.5347" fill="#002B11"/>
<path d="M67.2122 60.46C67.2122 60.46 68.3354 57.6499 71.3608 54.8085C74.3862 51.9671 78.206 51.4426 78.206 51.4426C78.206 51.4426 76.8479 54.4758 73.6269 57.5012C70.4019 60.5266 67.2161 60.46 67.2161 60.46" fill="#002B11"/>
<path d="M59.5806 64.6517C59.5806 64.6517 61.1383 63.1331 63.9758 62.0294C66.8133 60.9257 69.5099 61.458 69.5099 61.458C69.5099 61.458 67.733 63.0627 64.7116 64.2407C61.6901 65.4188 59.5845 64.6517 59.5845 64.6517" fill="#002B11"/>
<path d="M52.1716 66.1545C52.1716 66.1545 53.788 65.4892 56.2028 65.5714C58.6177 65.6536 60.4063 66.9686 60.4063 66.9686C60.4063 66.9686 58.602 67.63 56.0306 67.5439C53.4593 67.4578 52.1716 66.1584 52.1716 66.1584" fill="#002B11"/>
<path d="M70.5508 53.6618C70.5508 53.6618 71.0752 50.6677 73.447 47.2627C75.8227 43.8577 79.4312 42.574 79.4312 42.574C79.4312 42.574 78.7228 45.8342 76.1945 49.4623C73.6662 53.0904 70.5469 53.6618 70.5469 53.6618" fill="#002B11"/>
<path d="M73.5327 44.5347C73.5327 44.5347 72.9534 41.5015 73.928 37.4272C74.9025 33.353 77.7713 30.8599 77.7713 30.8599C77.7713 30.8599 78.2762 34.2101 77.239 38.5505C76.198 42.8909 73.5327 44.5347 73.5327 44.5347Z" fill="#002B11"/>
<path d="M50.9422 67.2348C50.9422 67.9119 50.3904 68.4637 49.7133 68.4637C49.0362 68.4637 48.4844 67.9119 48.4844 67.2348C48.4844 66.5577 49.0362 66.0059 49.7133 66.0059C50.3904 66.0059 50.9422 66.5577 50.9422 67.2348Z" fill="#002B11"/>
<path d="M35.5103 78.001L38.6519 75.1425C38.8688 74.9538 39.0292 74.7698 39.133 74.5906C39.2368 74.4019 39.2887 74.2038 39.2887 73.9962C39.2887 73.7415 39.2085 73.5481 39.0481 73.416C38.8877 73.2745 38.6754 73.2038 38.4113 73.2038C38.1566 73.2038 37.9443 73.2887 37.7745 73.4585C37.6141 73.6283 37.5292 73.8453 37.5198 74.1094H35.5386C35.5386 73.6377 35.6471 73.2038 35.8641 72.8075C36.0905 72.4019 36.4207 72.0764 36.8547 71.8311C37.2981 71.5858 37.8311 71.4632 38.4537 71.4632C39.35 71.4632 40.067 71.6802 40.6047 72.1141C41.1425 72.5481 41.4113 73.1377 41.4113 73.883C41.4113 74.4113 41.2887 74.8689 41.0434 75.2557C40.7981 75.6425 40.4396 76.0293 39.9679 76.4161L38.7085 77.4491H41.4821V79.218H35.5103V78.001ZM46.264 79.4161C45.4715 79.4161 44.764 79.2416 44.1413 78.8925C43.5281 78.534 43.0517 78.0529 42.712 77.4491C42.3724 76.8453 42.2026 76.1755 42.2026 75.4397C42.2026 74.7038 42.3724 74.034 42.712 73.4302C43.0517 72.8264 43.5281 72.35 44.1413 72.0009C44.764 71.6424 45.4715 71.4632 46.264 71.4632C47.0564 71.4632 47.7593 71.6424 48.3725 72.0009C48.9952 72.35 49.4763 72.8264 49.8159 73.4302C50.1556 74.034 50.3254 74.7038 50.3254 75.4397C50.3254 76.1755 50.1556 76.8453 49.8159 77.4491C49.4763 78.0529 48.9952 78.534 48.3725 78.8925C47.7593 79.2416 47.0564 79.4161 46.264 79.4161ZM46.264 77.5199C46.8489 77.5199 47.33 77.3312 47.7074 76.9538C48.0942 76.567 48.2876 76.0623 48.2876 75.4397C48.2876 74.817 48.0942 74.317 47.7074 73.9396C47.33 73.5528 46.8489 73.3594 46.264 73.3594C45.6791 73.3594 45.1932 73.5528 44.8064 73.9396C44.429 74.317 44.2404 74.817 44.2404 75.4397C44.2404 76.0623 44.429 76.567 44.8064 76.9538C45.1932 77.3312 45.6791 77.5199 46.264 77.5199ZM50.9467 78.001L54.0883 75.1425C54.3052 74.9538 54.4656 74.7698 54.5694 74.5906C54.6732 74.4019 54.7251 74.2038 54.7251 73.9962C54.7251 73.7415 54.6449 73.5481 54.4845 73.416C54.3241 73.2745 54.1118 73.2038 53.8477 73.2038C53.593 73.2038 53.3807 73.2887 53.2109 73.4585C53.0505 73.6283 52.9656 73.8453 52.9562 74.1094H50.975C50.975 73.6377 51.0835 73.2038 51.3005 72.8075C51.5269 72.4019 51.8571 72.0764 52.2911 71.8311C52.7345 71.5858 53.2675 71.4632 53.8901 71.4632C54.7864 71.4632 55.5034 71.6802 56.0411 72.1141C56.5789 72.5481 56.8477 73.1377 56.8477 73.883C56.8477 74.4113 56.7251 74.8689 56.4798 75.2557C56.2345 75.6425 55.876 76.0293 55.4043 76.4161L54.1449 77.4491H56.9185V79.218H50.9467V78.001ZM61.4793 73.0481C62.0264 73.0481 62.517 73.1802 62.951 73.4443C63.3849 73.6991 63.7246 74.0623 63.9699 74.534C64.2152 74.9963 64.3378 75.5246 64.3378 76.1189C64.3378 76.7321 64.1963 77.2887 63.9133 77.7887C63.6302 78.2888 63.2293 78.685 62.7104 78.9774C62.1915 79.2605 61.5878 79.402 60.8991 79.402C60.2198 79.402 59.616 79.251 59.0877 78.9491C58.5688 78.6473 58.1679 78.2463 57.8849 77.7463C57.6018 77.2369 57.4603 76.6802 57.4603 76.0765C57.4603 75.5293 57.5405 75.0434 57.7009 74.6189C57.8707 74.1944 58.1301 73.7226 58.4792 73.2038L60.7292 69.9065H63.1066L60.8 73.1189C61.0359 73.0717 61.2623 73.0481 61.4793 73.0481ZM60.8991 77.4916C61.2764 77.4916 61.5972 77.3642 61.8613 77.1095C62.1349 76.8548 62.2717 76.5246 62.2717 76.1189C62.2717 75.7132 62.1349 75.3878 61.8613 75.1425C61.5972 74.8878 61.2764 74.7604 60.8991 74.7604C60.5217 74.7604 60.2009 74.8878 59.9368 75.1425C59.6726 75.3878 59.5405 75.7132 59.5405 76.1189C59.5405 76.5246 59.6726 76.8548 59.9368 77.1095C60.2009 77.3642 60.5217 77.4916 60.8991 77.4916Z" fill="#002B11"/>
</g>
<defs>
<clipPath id="clip0_7096_934">
<rect width="100" height="100" fill="white"/>
</clipPath>
</defs>
</svg>
